<svg width="17" height="16" viewBox="0 0 17 16" fill="none" xmlns="http://www.w3.org/2000/svg">
<path d="M8.15584 0.166534C3.65224 0.166534 0 3.76253 0 8.19853C0 11.7465 2.33694 14.7565 5.57929 15.8195C5.98714 15.8935 6.136 15.6455 6.136 15.4325C6.136 15.2415 6.12886 14.7365 6.12478 14.0665C3.85616 14.5515 3.37694 12.9895 3.37694 12.9895C3.00682 12.0615 2.47153 11.8145 2.47153 11.8145C1.73027 11.3165 2.52659 11.3265 2.52659 11.3265C3.34533 11.3835 3.77561 12.1545 3.77561 12.1545C4.50361 13.3815 5.68533 13.0275 6.15027 12.8215C6.22369 12.3025 6.43475 11.9485 6.66824 11.7475C4.85741 11.5445 2.95278 10.8555 2.95278 7.77853C2.95278 6.90153 3.2709 6.18453 3.79294 5.62253C3.70831 5.41953 3.42894 4.60253 3.87247 3.49753C3.87247 3.49753 4.55765 3.28153 6.11561 4.32053C6.76612 4.14253 7.46353 4.05353 8.15788 4.05053C8.8502 4.05453 9.54863 4.14253 10.2002 4.32153C11.7571 3.28253 12.4413 3.49853 12.4413 3.49853C12.8858 4.60453 12.6064 5.42053 12.5228 5.62353C13.0459 6.18553 13.3609 6.90253 13.3609 7.77953C13.3609 10.8645 11.4543 11.5435 9.63733 11.7425C9.92996 11.9905 10.191 12.4805 10.191 13.2295C10.191 14.3035 10.1808 15.1695 10.1808 15.4325C10.1808 15.6475 10.3276 15.8975 10.7416 15.8185C13.9788 14.7545 16.3137 11.7455 16.3137 8.19853C16.3137 3.76253 12.6615 0.166534 8.15584 0.166534Z" fill="#C4C4CC"/>
</svg>
